# xmcd CD database file
#
# Track frame offsets:
#	150
#	16470
#	32423
#	47174
#	64780
#	82847
#	97048
#	115002
#	128678
#	147060
#	161088
#
# Disc length: 2427 seconds
#
# Revision: 1
# Processed by: cddbd v1.5.2PL0 Copyright (c) Steve Scherf et al.
# Submitted via: CDex 1.51
#
DISCID=8509790b
DTITLE=Haze, Sara and Lena, Chelsea - Lightning Strikes Twice
DYEAR=2007
DGENRE=Country
TTITLE0=My Own Hands to Hold
TTITLE1=Finally Got Away
TTITLE2=Counting Down the Days
TTITLE3=You Can't Tell Me
TTITLE4=The Big Lie
TTITLE5=Why My Body in This Bed
TTITLE6=Dust From Stars
TTITLE7=Her Bed My Door
TTITLE8=The Border
TTITLE9=Jesse Geller
TTITLE10=Bye Bye Love Song
EXTD=YEAR: 2007
EXTT0=
EXTT1=
EXTT2=
EXTT3=
EXTT4=
EXTT5=
EXTT6=
EXTT7=
EXTT8=
EXTT9=
EXTT10=
PLAYORDER=
